<?xml version="1.0" encoding="utf-8"?>
<!-- Generator: Adobe Illustrator 24.1.0, SVG Export Plug-In . SVG Version: 6.00 Build 0)  -->
<svg version="1.1" id="Isolation_Mode" xmlns="http://www.w3.org/2000/svg" xmlns:xlink="http://www.w3.org/1999/xlink" x="0px"
	 y="0px" viewBox="0 0 1080 1080" style="enable-background:new 0 0 1080 1080;" xml:space="preserve">
<style type="text/css">
	.st0{fill:#FFFFFF;}
	.st1{fill:#EE3524;}
</style>
<g>
	<path class="st0" d="M809.8,500.59V384.67c6.27-4.93,10.3-12.59,10.3-21.19v-5.26c0-14.88-12.07-26.95-26.95-26.95h-45.78
		c-8.83,0-16.67,4.24-21.58,10.81c-8.17-0.28-16.37,0.76-24.48,3.12c-13.47-9.16-29.15-13.93-46.19-13.93h-19.91
		c-0.69,0-1.38,0.05-2.06,0.1c-0.68-0.05-1.36-0.1-2.06-0.1h-27.3v-22.72c0-14.88-12.07-26.95-26.95-26.95
		c-1.29,0-8.5-0.6-23.78-12.44c-0.34-0.27-0.7-0.53-1.05-0.78c-15.59-10.91-30.04-17.45-44.2-20.01
		c-12.17-2.2-20.25-3.18-26.19-3.18c-16.42,0-32.52,4.42-47.86,13.13c-0.33,0.19-0.67,0.39-0.99,0.59
		c-13.79,8.62-24.93,20.1-33.23,34.12c-1.08-0.13-2.18-0.22-3.29-0.22h-29.53c-4.19,0-6.6-0.39-7.75-0.65
		c-0.58-5.84-3.05-11.37-7.1-15.72c-5.1-5.47-12.24-8.58-19.72-8.58h-35.02c-14.88,0-26.95,12.06-26.95,26.95
		c0,8.39,2.01,18.1,6.14,29.67c0.94,2.63,2.03,5.22,3.28,7.77c-11.37,3.16-19.72,13.59-19.72,25.97v5.26
		c0,11.18,6.8,20.76,16.49,24.84c-1.07,4.8-1.62,9.8-1.62,14.98v14.65c0,3.69,0.74,7.2,2.08,10.4c-0.01,0.35-0.02,0.69-0.02,1.04
		v35.02c0,8.98,4.47,17.37,11.93,22.37l5.02,3.37c-2.19,3.21-4.25,6.55-6.1,10.06c-5.99,11.32-9.85,23.41-11.56,36.09
		c-9.36,4.22-15.88,13.64-15.88,24.58v5.26c0,10.54,6.06,19.67,14.88,24.1v97.49c-8.82,4.43-14.88,13.53-14.88,24.07v96.03
		c0,14.88,12.07,26.95,26.95,26.95h373.78c10.74,0,20.45-6.37,24.72-16.22c0.12-0.28,0.22-0.56,0.33-0.83
		c10.07,5.25,21.5,8.24,33.62,8.24c40.25,0,73-32.75,73-73c0-15.65-4.97-30.15-13.38-42.05c3.16-2.42,6.14-5.02,8.92-7.84
		c7.88-7.98,14.09-17.3,18.47-27.7c4.44-10.54,6.69-21.72,6.69-33.23c0-11.06-2.14-22.25-6.37-33.25c-0.49-1.28-1.08-2.53-1.77-3.71
		c-2.23-4.58-5.1-8.74-8.53-12.36c13.05-1.88,23.07-13.1,23.07-26.67v-5.26c0-14.88-12.07-26.95-26.95-26.95h-9.22v-6.45
		C798.13,527.1,809.8,515.22,809.8,500.59z"/>
	<path class="st1" d="M639.29,752.97c0-15.04,4.14-29.12,11.34-41.16H287.19v96.03h373.78C647.54,793.48,639.29,774.2,639.29,752.97
		z"/>
	<g>
		<g>
			<g>
				<g>
					<g>
						<path class="st1" d="M320.72,369.43c-12.67,8.7-19,19.99-19,33.88v14.65h35.02v-14.65c0-0.3,0.04-0.69,0.11-1.15
							c0.07-0.46,0.34-0.95,0.8-1.49c0.46-0.53,1.15-1.11,2.06-1.72c1.98-1.22,4.16-1.95,6.52-2.17c2.36-0.23,4.46,0.04,6.29,0.8
							c3.05,1.68,5.07,4.35,6.07,8.01c0.99,3.66,0.95,7.25-0.11,10.76c-0.76,2.6-1.98,4.69-3.66,6.3c-1.68,1.6-3.28,2.79-4.81,3.55
							c-2.29,1.07-5.95,1.83-10.99,2.29c-5.04,0.46-10.23,0.73-15.57,0.8c-5.34,0.08-9.61,0.11-12.82,0.11h-6.87v35.02l27.52,18.47
							c1.26-0.9,2.55-1.77,3.87-2.6l0.18-0.11c9.78-5.55,19.86-8.83,30.06-9.86l-11.73-8.87c4.73-0.92,9-2.36,12.82-4.35
							c12.66-6.87,21.21-16.86,25.64-29.99c3.66-12.51,3.35-24.26-0.92-35.25c-4.27-10.99-11.67-19.38-22.2-25.18
							c1.37-1.07,3.13-2.13,5.26-3.2h26.78v-5.26l-15.34,0.03c3.05-1.21,6.56-2.43,10.53-3.64v-34.84h-29.53
							c-10.38,0-18.01-1.69-22.89-5.08c-4.89-3.39-8.09-7.08-9.61-11.09c-1.53-3.7-2.21-6.62-2.06-8.78h-35.02
							c0,5.19,1.52,12.07,4.58,20.62c3.05,8.56,8.7,16.49,16.94,23.83c8.24,7.33,19.99,12.22,35.25,14.66
							c-0.92,1.51-1.68,2.94-2.29,4.3h-64.78v5.26h47.61C329.57,364.7,324.99,366.69,320.72,369.43z"/>
					</g>
				</g>
				<g>
					<g>
						<path class="st1" d="M536.57,290.46c-12.21-8.54-23.39-13.73-33.53-15.56c-10.15-1.83-17.28-2.75-21.4-2.75
							c-11.75,0-23.27,3.2-34.56,9.61c-11.22,7.02-19.98,16.48-26.27,28.38c-6.29,11.9-9.44,24.8-9.44,38.68v9.38h-14.88v5.26h14.88
							v114.74c6.01,2.75,12.26,6.39,18.72,10.91l0.19,0.14c5.69,4.41,11.07,7.96,16.11,10.66V363.48h10.3v-5.26h-10.3v-9.38
							c0-7.78,1.72-14.95,5.15-21.52c3.43-6.56,8.13-11.67,14.08-15.34c5.34-3.05,10.99-4.58,16.94-4.58c2.75,0,5.64,0.38,8.7,1.14
							c9.31,2.14,17.7,5.88,25.18,11.22l2.06,1.37c10.07,7.78,21.74,14.19,35.02,19.23c7.93,2.44,15.72,3.66,23.35,3.66v-35.48
							C565.56,308.55,552.13,302.52,536.57,290.46z"/>
					</g>
				</g>
				<g>
					<g>
						<path class="st1" d="M585.78,431.69v68.9h16.71c5.09-6.99,11.21-13,18.31-17.97V363.48h10.3v-5.26H452.33v5.26h133.45v29.76
							c-2.29-0.61-5.04-0.92-8.24-0.92c-13.28,0-24.65,4.5-34.11,13.5c-8.09-6.56-16.63-11.1-25.64-13.62
							c-9.01-2.52-17.63-3.78-25.87-3.78c-6.72,0-11.94,1.11-15.68,3.32c-3.74,2.21-6.52,5.42-8.35,9.61
							c-1.83,4.2-3.02,9.42-3.55,15.68c-0.54,6.26-0.88,13.35-1.03,21.29c0.3,19.53,4.88,34.68,13.73,45.44
							c8.85,10.76,21.29,16.14,37.31,16.14v-34.79c-3.61,0-6.51-0.8-8.69-2.4c-2.18-1.6-3.8-3.74-4.85-6.41
							c-1.06-2.67-1.73-5.64-2.03-8.93c-0.3-3.28-0.45-6.67-0.45-10.19c0-2.14,0.07-4.35,0.22-6.64c0.15-2.29,0.38-4.5,0.68-6.64
							c5,0.31,10.14,1.8,15.44,4.46c5.3,2.67,9.61,7.21,12.95,13.62v21.97h35.02v-21.29c0-3.66,1.3-7.06,3.89-10.19
							c2.59-3.13,6.03-4.84,10.3-5.15C580.82,427.65,583.79,429.1,585.78,431.69z"/>
					</g>
				</g>
				<g>
					<path class="st1" d="M782.85,500.59h-35.48v-77.82l-17.4-11.22c-2.14-1.37-4.43-2.06-6.87-2.06c-1.07,0-2.14,0.15-3.2,0.46
						c-5.65,1.68-8.47,5.26-8.47,10.76c0,4.12,1.49,7.71,4.46,10.76c2.97,3.05,6.6,4.58,10.87,4.58h10.76v40.28h-10.76
						c-15.56,0-28.84-5.57-39.83-16.71c-9.46,6.72-20.07,10.07-31.82,10.07H637.5v-40.51h17.63c4.27,0,7.9-1.49,10.87-4.46
						c2.98-2.97,4.46-6.6,4.46-10.87c0-4.12-1.49-7.7-4.46-10.76c-2.98-3.05-6.6-4.58-10.87-4.58h-19.91v-40.29h19.91
						c16.33,0,30.06,6.03,41.2,18.08c9-4.88,17.93-7.32,26.78-7.32c8.09,0,16.17,1.98,24.26,5.95v-16.71h45.78v5.26h-10.3V500.59z"
						/>
				</g>
			</g>
			<g>
				<g>
					<path d="M337.09,703.27h-35.02V566.16h-14.88v-5.26h14.88v-9.38c0-13.88,3.14-26.78,9.44-38.68
						c6.29-11.9,15.05-21.36,26.27-28.38c11.29-6.41,22.81-9.61,34.56-9.61c4.12,0,11.25,0.92,21.4,2.75
						c10.15,1.83,21.32,7.02,33.53,15.56c15.56,12.06,28.99,18.08,40.28,18.08v35.48c-7.63,0-15.41-1.22-23.35-3.66
						c-13.28-5.04-24.95-11.45-35.02-19.23l-2.06-1.37c-7.48-5.34-15.87-9.08-25.18-11.22c-3.06-0.76-5.95-1.14-8.7-1.14
						c-5.95,0-11.6,1.53-16.94,4.58c-5.95,3.66-10.64,8.78-14.08,15.34c-3.43,6.56-5.15,13.73-5.15,21.52v9.38h10.3v5.26h-10.3
						V703.27z"/>
				</g>
				<g>
					<path d="M380.81,703.27h-22.89V566.16h-14.88v-5.26h137.79v5.26h-87.9v5.72c0,5.95,3.13,10.22,9.39,12.82l43.72,13.5
						c8.39,2.14,15.14,6.45,20.26,12.93c5.11,6.49,7.82,14.08,8.13,22.78v9.84c-0.15,9.16-2.02,16.94-5.61,23.35
						c-3.59,6.41-8.2,11.83-13.85,16.25c-5.65,4.43-11.98,7.94-19,10.53c-7.02,2.6-13.96,4.58-20.83,5.95s-13.35,2.29-19.46,2.75
						C389.58,703.04,384.62,703.27,380.81,703.27z M392.94,667.56c13.43-0.76,24.03-3.13,31.82-7.1
						c7.78-3.97,11.67-8.93,11.67-14.88v-6.87c-0.76-11.45-6.41-19.38-16.94-23.81l-26.55-9.61V667.56z"/>
				</g>
				<g>
					<path d="M481.06,653.14c6.26-6.87,13.39-12.28,21.4-16.25c8.01-3.96,16.75-5.95,26.21-5.95c7.32,0,14.11,1.41,20.37,4.23
						c6.26,2.83,11.59,6.64,16.02,11.45c4.42,4.81,7.9,10.34,10.41,16.59c2.52,6.26,3.78,12.82,3.78,19.68
						c0,7.17-1.15,14.04-3.43,20.6H558.2c0.46-2.44,0.69-5.04,0.69-7.78c0-4.58-0.57-8.93-1.72-13.05
						c-1.15-4.12-2.9-7.74-5.27-10.87c-2.37-3.13-5.46-5.64-9.27-7.55c-3.82-1.91-8.32-2.86-13.51-2.86
						c-9.77,0.92-18.01,4.89-24.72,11.9L481.06,653.14z M564.15,592.48c0,3.97-0.77,7.78-2.29,11.45c-1.53,3.66-3.67,6.87-6.41,9.61
						c-2.75,2.75-5.95,4.92-9.61,6.52c-3.67,1.6-7.63,2.4-11.91,2.4c-4.12,0-8.01-0.8-11.67-2.4c-3.66-1.6-6.83-3.74-9.5-6.41
						c-2.67-2.67-4.81-5.84-6.41-9.5c-1.6-3.66-2.4-7.55-2.4-11.67c0-4.27,0.8-8.24,2.4-11.9c1.6-3.66,3.78-6.83,6.52-9.5
						c2.75-2.67,5.91-4.77,9.5-6.29c3.59-1.52,7.44-2.29,11.56-2.29c4.12,0,8.01,0.8,11.68,2.4c3.66,1.6,6.86,3.74,9.61,6.41
						c2.75,2.67,4.92,5.84,6.52,9.5C563.35,584.47,564.15,588.36,564.15,592.48z"/>
				</g>
				<g>
					<path d="M626.18,703.27h-35.02V566.16h-14.88v-5.26h14.88v-9.38c0-13.88,3.14-26.78,9.44-38.68
						c6.29-11.9,15.05-21.36,26.27-28.38c11.29-6.41,22.81-9.61,34.56-9.61c4.12,0,11.25,0.92,21.4,2.75
						c10.15,1.83,21.32,7.02,33.53,15.56c15.56,12.06,28.99,18.08,40.29,18.08v35.48c-7.63,0-15.41-1.22-23.35-3.66
						c-13.28-5.04-24.95-11.45-35.02-19.23l-2.06-1.37c-7.48-5.34-15.87-9.08-25.18-11.22c-3.05-0.76-5.95-1.14-8.7-1.14
						c-5.95,0-11.6,1.53-16.94,4.58c-5.95,3.66-10.64,8.78-14.08,15.34c-3.43,6.56-5.15,13.73-5.15,21.52v9.38h10.3v5.26h-10.3
						V703.27z"/>
				</g>
				<g>
					<path d="M792.81,566.16v-5.26H632.13v5.26h65.01v49.55c0,8.26,2.4,15.6,7.21,22.02c4.81,6.42,11.33,10.71,19.57,12.85
						l0.46,0.23c2.29,0.62,4.88,0.92,7.78,0.92c5.64,0,11.22-1.38,16.71-4.13l2.29-1.14c-1.07,6.42-4.01,11.59-8.81,15.49
						c-4.81,3.9-10.64,5.85-17.51,5.85c-6.72,0-12.93-1.3-18.66-3.89c-5.72-2.59-10.64-6.22-14.76-10.87
						c-4.12-4.65-7.36-10.22-9.73-16.71c-2.37-6.48-3.55-13.62-3.55-21.4l-35.02-7.78c0,14.35,1.75,27.09,5.26,38.23
						c3.51,11.14,8.47,20.66,14.88,28.55c6.41,7.9,14.11,14.19,23.12,18.89c9,4.7,19,7.81,29.99,9.32l0.06,0
						c1.07-0.07,2.15-0.11,3.23-0.11c2.34,0,4.64,0.17,6.89,0.48c8.17-0.37,15.77-2.05,22.78-5.07c7.63-3.28,14.19-7.7,19.68-13.28
						c5.49-5.57,9.76-11.98,12.82-19.23c3.05-7.25,4.58-14.84,4.58-22.78c0-7.78-1.53-15.64-4.58-23.58l-0.23-0.23
						c-1.83-4.42-4.66-7.86-8.47-10.3c-3.82-2.44-8.09-3.66-12.82-3.66h-2.29l-2.97,0.46l-22.2,11.45
						c-0.15,0.15-0.31,0.23-0.46,0.23c-0.15-0.15-0.23-0.46-0.23-0.92v-49.44H792.81z"/>
				</g>
			</g>
		</g>
		<g>
			<circle cx="719.65" cy="752.97" r="46.06"/>
		</g>
		<g>
			<path class="st0" d="M342.05,760.21v3.79h-0.9h-3.99h-3.79c-0.77,0-1.42-0.13-1.93-0.45c-0.52-0.32-0.9-0.71-1.29-1.29
				l-9.78-14.92c-0.39-0.58-0.77-0.9-1.22-1.16s-1.09-0.39-1.93-0.39h-3.28v11.84c0.77,0.13,1.48,0.26,1.93,0.32
				c0.45,0.06,0.77,0.19,0.96,0.19s0.32,0.06,0.39,0.06c1.09,0.26,1.61,0.9,1.61,2v3.79h-4.89h-8.62h-4.89v-3.79
				c0-1.09,0.51-1.74,1.61-2c0.06,0,0.19-0.06,0.39-0.06c0.19-0.06,0.51-0.13,0.96-0.19c0.45-0.06,1.16-0.19,1.93-0.32v-33.77
				c-0.77-0.13-1.48-0.26-1.93-0.32c-0.45-0.07-0.77-0.19-0.96-0.19s-0.32-0.07-0.39-0.07c-1.09-0.26-1.61-0.9-1.61-1.99v-3.79h4.89
				h13.7c3.15,0,5.92,0.32,8.17,0.96c2.25,0.64,4.12,1.61,5.53,2.77c1.42,1.16,2.57,2.64,3.22,4.24c0.71,1.67,1.03,3.41,1.03,5.4
				c0,1.54-0.26,3.02-0.71,4.44c-0.45,1.41-1.16,2.64-1.99,3.79c-0.84,1.16-1.93,2.12-3.22,2.96c-1.29,0.84-2.77,1.54-4.37,2.06
				c1.09,0.64,2.06,1.54,2.83,2.7l7.33,10.81c0.77,0.13,1.48,0.26,1.99,0.32c0.52,0.06,0.84,0.19,1.09,0.19
				c0.26,0,0.45,0.06,0.52,0.06C341.53,758.48,342.05,759.12,342.05,760.21z M326.16,737.31c0.77-0.71,1.35-1.61,1.74-2.57
				c0.39-0.96,0.58-2.06,0.58-3.22c0-2.38-0.77-4.18-2.32-5.47c-1.54-1.29-3.92-1.86-7.14-1.86h-5.08v15.44h4.95
				c1.61,0,3.02-0.26,4.24-0.64C324.36,738.6,325.39,738.02,326.16,737.31z"/>
			<path class="st0" d="M382.57,717.5v4.5v2.38v5.34h-0.32h-0.77h-2.64c-0.84,0-1.29-0.45-1.48-1.22c-0.07-0.52-0.26-1.87-0.45-4.12
				h-14.99v12.86h15.76v6.69h-15.76v13.12h14.99c0.19-2.25,0.39-3.6,0.45-4.12c0.19-0.77,0.64-1.22,1.48-1.22h2.64h0.77h0.32v5.34
				v2.44v4.5h-29.33h-4.89v-3.79c0-1.09,0.51-1.74,1.61-2c0.06,0,0.19-0.06,0.39-0.06c0.19,0,0.51-0.13,0.96-0.19
				c0.45-0.06,1.16-0.19,1.93-0.32v-33.77c-0.77-0.13-1.48-0.26-1.93-0.32c-0.45-0.07-0.77-0.19-0.96-0.19
				c-0.19,0-0.32-0.07-0.39-0.07c-1.09-0.26-1.61-0.9-1.61-1.99v-3.79h4.89H382.57z"/>
			<path class="st0" d="M422.01,731.01c-0.13-0.58-0.32-2.32-0.58-5.15c-3.54-1.03-6.43-1.48-8.88-1.48c-2.19,0-4.18,0.32-6.05,1.09
				c-1.86,0.77-3.41,1.87-4.7,3.28c-1.29,1.41-2.32,3.09-3.09,5.15c-0.77,2.06-1.16,4.37-1.16,6.88c0,2.64,0.39,4.89,1.16,6.95
				c0.77,2.06,1.67,3.73,2.96,5.15c1.29,1.41,2.77,2.44,4.5,3.22c1.74,0.77,3.54,1.09,5.53,1.09c1.16,0,2.25-0.06,3.22-0.19
				c0.96-0.13,1.87-0.32,2.64-0.58c0.77-0.26,1.54-0.64,2.25-1.09c0.71-0.45,1.41-1.03,2.12-1.67c0.19-0.19,0.45-0.32,0.71-0.45
				c0.26-0.13,0.51-0.13,0.77-0.13c0.45,0,0.9,0.13,1.22,0.52l3.41,3.73c-1.86,2.32-4.18,4.12-6.95,5.34
				c-2.77,1.22-6.11,1.87-9.97,1.87c-3.47,0-6.5-0.64-9.26-1.8c-2.77-1.16-5.15-2.77-7.08-4.89c-1.93-2.12-3.47-4.63-4.5-7.52
				c-1.03-2.89-1.54-6.05-1.54-9.52c0-3.47,0.58-6.75,1.74-9.65c1.16-2.89,2.77-5.34,4.89-7.46c2.12-2.12,4.57-3.79,7.53-4.95
				c2.89-1.16,6.17-1.74,9.71-1.74c3.86,0,8.75,1.09,14.6,3.34v11.84h-3.73C422.65,732.17,422.2,731.78,422.01,731.01z"/>
			<path class="st0" d="M450.37,723.36c-0.19,0-0.51,0.13-0.96,0.19c-0.45,0.06-1.09,0.19-1.86,0.32v33.77
				c0.77,0.13,1.41,0.26,1.86,0.32c0.45,0.06,0.77,0.19,0.96,0.19c0.19,0,0.32,0.06,0.39,0.06c1.09,0.26,1.61,0.9,1.61,2v3.79h-4.82
				h-8.68h-4.89v-3.79c0-1.09,0.51-1.74,1.61-2c0.06,0,0.19-0.06,0.39-0.06c0.19-0.06,0.51-0.13,0.96-0.19
				c0.45-0.06,1.16-0.19,1.93-0.32v-33.77c-0.77-0.13-1.48-0.26-1.93-0.32c-0.45-0.07-0.77-0.19-0.96-0.19
				c-0.19-0.07-0.32-0.07-0.39-0.07c-1.09-0.26-1.61-0.9-1.61-1.99v-3.79h4.89h8.68h4.82v3.79c0,1.09-0.51,1.74-1.61,1.99
				C450.7,723.29,450.57,723.36,450.37,723.36z"/>
			<path class="st0" d="M496.11,732.3c0,2.25-0.39,4.37-1.16,6.24c-0.77,1.87-1.87,3.47-3.34,4.82c-1.48,1.35-3.41,2.38-5.66,3.15
				c-2.25,0.77-4.89,1.09-7.91,1.09h-5.73v10.04c0.77,0.13,1.48,0.26,1.93,0.32c0.45,0.06,0.77,0.19,0.96,0.19s0.32,0.06,0.39,0.06
				c1.09,0.26,1.61,0.9,1.61,2v3.79h-4.89h-8.62h-4.89v-3.79c0-1.09,0.51-1.74,1.61-2c0.06,0,0.19-0.06,0.39-0.06
				c0.19-0.06,0.51-0.13,0.96-0.19c0.45-0.06,1.16-0.19,1.93-0.32v-33.77c-0.77-0.13-1.48-0.26-1.93-0.32
				c-0.45-0.07-0.77-0.19-0.96-0.19c-0.19-0.07-0.32-0.07-0.39-0.07c-1.09-0.26-1.61-0.9-1.61-1.99v-3.79h4.89h14.34
				c3.09,0,5.85,0.39,8.1,1.09c2.25,0.71,4.12,1.8,5.6,3.09c1.48,1.29,2.57,2.83,3.28,4.63
				C495.72,728.12,496.11,730.11,496.11,732.3z M487.42,732.3c0-1.22-0.19-2.32-0.58-3.34c-0.39-1.03-0.96-1.86-1.74-2.57
				c-0.77-0.71-1.74-1.22-2.89-1.61s-2.57-0.58-4.18-0.58h-5.73v16.66h5.73c1.61,0,3.02-0.19,4.18-0.58s2.12-0.9,2.89-1.67
				c0.77-0.71,1.35-1.61,1.74-2.7C487.23,734.87,487.42,733.58,487.42,732.3z"/>
			<path class="st0" d="M536.44,717.5v4.5v2.38v5.34h-0.32h-0.77h-2.64c-0.84,0-1.29-0.45-1.48-1.22c-0.07-0.52-0.26-1.87-0.45-4.12
				h-14.99v12.86h15.76v6.69h-15.76v13.12h14.99c0.19-2.25,0.39-3.6,0.45-4.12c0.19-0.77,0.64-1.22,1.48-1.22h2.64h0.77h0.32v5.34
				v2.44v4.5h-29.33h-4.89v-3.79c0-1.09,0.51-1.74,1.61-2c0.06,0,0.19-0.06,0.39-0.06c0.19,0,0.51-0.13,0.96-0.19
				c0.45-0.06,1.16-0.19,1.93-0.32v-33.77c-0.77-0.13-1.48-0.26-1.93-0.32c-0.45-0.07-0.77-0.19-0.96-0.19
				c-0.19,0-0.32-0.07-0.39-0.07c-1.09-0.26-1.61-0.9-1.61-1.99v-3.79h4.89H536.44z"/>
			<path class="st0" d="M322.94,780.58c-0.09-0.4-0.22-1.61-0.4-3.59c-2.46-0.72-4.48-1.03-6.18-1.03c-1.52,0-2.91,0.22-4.21,0.76
				c-1.3,0.54-2.37,1.3-3.27,2.29c-0.9,0.99-1.61,2.15-2.15,3.58c-0.54,1.43-0.81,3.05-0.81,4.79c0,1.84,0.27,3.41,0.81,4.84
				c0.54,1.43,1.16,2.6,2.06,3.59s1.93,1.7,3.14,2.24c1.21,0.54,2.46,0.76,3.85,0.76c0.81,0,1.57-0.04,2.24-0.13
				c0.67-0.09,1.3-0.22,1.84-0.4c0.54-0.18,1.08-0.45,1.57-0.76c0.49-0.31,0.99-0.72,1.48-1.16c0.13-0.13,0.31-0.22,0.49-0.31
				c0.18-0.09,0.36-0.09,0.54-0.09c0.31,0,0.63,0.09,0.85,0.36l2.37,2.6c-1.3,1.61-2.91,2.87-4.84,3.72
				c-1.93,0.85-4.26,1.3-6.94,1.3c-2.42,0-4.53-0.45-6.45-1.26c-1.93-0.81-3.58-1.93-4.93-3.41c-1.34-1.48-2.42-3.23-3.14-5.24
				c-0.72-2.02-1.08-4.21-1.08-6.63c0-2.42,0.4-4.71,1.21-6.72c0.81-2.02,1.93-3.72,3.41-5.2c1.48-1.48,3.18-2.64,5.24-3.45
				c2.02-0.81,4.3-1.21,6.77-1.21c2.69,0,6.09,0.76,10.17,2.33v8.25h-2.6C323.39,781.39,323.07,781.12,322.94,780.58z"/>
			<path class="st0" d="M362.63,793.98c-0.81,2.02-1.88,3.76-3.32,5.24c-1.43,1.48-3.18,2.64-5.2,3.45
				c-2.02,0.81-4.21,1.26-6.68,1.26c-2.46,0-4.7-0.45-6.72-1.26c-2.02-0.81-3.76-1.97-5.2-3.45c-1.43-1.48-2.56-3.23-3.36-5.24
				c-0.81-2.02-1.17-4.26-1.17-6.63s0.36-4.57,1.17-6.59c0.81-2.02,1.93-3.76,3.36-5.24s3.18-2.64,5.2-3.45
				c2.02-0.81,4.26-1.26,6.72-1.26c2.46,0,4.66,0.4,6.68,1.26c2.02,0.85,3.76,1.97,5.2,3.45c1.43,1.48,2.51,3.23,3.32,5.24
				c0.81,2.02,1.21,4.21,1.21,6.59S363.44,791.96,362.63,793.98z M356.94,782.6c-0.45-1.43-1.12-2.6-2.02-3.58
				c-0.89-0.99-1.97-1.75-3.22-2.29c-1.26-0.54-2.69-0.76-4.26-0.76c-1.57,0-3.05,0.22-4.3,0.76c-1.26,0.54-2.33,1.3-3.23,2.29
				s-1.57,2.15-2.06,3.58s-0.72,2.96-0.72,4.75s0.22,3.36,0.72,4.79c0.49,1.43,1.16,2.6,2.06,3.59s1.97,1.75,3.23,2.28
				c1.25,0.54,2.73,0.76,4.3,0.76c1.57,0,3-0.22,4.26-0.76c1.25-0.54,2.33-1.3,3.22-2.28c0.9-0.99,1.57-2.15,2.02-3.59
				c0.45-1.43,0.72-3,0.72-4.79S357.39,784.03,356.94,782.6z"/>
			<path class="st0" d="M402.19,771.17v2.64c0,0.76-0.36,1.21-1.12,1.39c-0.04,0-0.13,0.04-0.27,0.04c-0.13,0-0.36,0.09-0.67,0.13
				c-0.31,0.04-0.76,0.13-1.3,0.22v27.96h-3.14c-0.49,0-0.85-0.09-1.17-0.22c-0.31-0.14-0.63-0.4-0.94-0.81l-16.94-21.55
				c0.04,0.49,0.09,0.94,0.09,1.39c0,0.45,0.04,0.9,0.04,1.3v15.46c1.88,0.27,2.82,0.4,2.91,0.4c0.76,0.18,1.12,0.63,1.12,1.39v2.64
				h-4.03h-5.29h-3.41v-2.64c0-0.76,0.36-1.21,1.12-1.39c0.04,0,0.14,0,0.27-0.05c0.13-0.04,0.36-0.09,0.67-0.13
				c0.31-0.04,0.81-0.13,1.34-0.22v-23.52c-0.54-0.09-1.03-0.18-1.34-0.22c-0.31-0.04-0.54-0.13-0.67-0.13s-0.22-0.04-0.27-0.04
				c-0.76-0.18-1.12-0.63-1.12-1.39v-2.64h3.41h3.14c0.27,0,0.49,0.04,0.67,0.04c0.18,0,0.36,0.04,0.49,0.14
				c0.13,0.04,0.27,0.13,0.4,0.27s0.27,0.31,0.45,0.54l17.03,21.64c-0.04-0.54-0.09-1.03-0.13-1.52c-0.04-0.49-0.04-0.99-0.04-1.43
				v-15.23c-1.88-0.27-2.82-0.4-2.91-0.4c-0.76-0.18-1.12-0.63-1.12-1.39v-2.64h4.03h5.33H402.19z"/>
			<path class="st0" d="M433.19,771.17v7.66h-0.18h-0.54h-1.84c-0.58,0-0.94-0.31-1.07-0.85c-0.04-0.27-0.13-0.85-0.22-1.84h-6.59
				v22.99c0.54,0.09,0.99,0.18,1.3,0.22c0.31,0.04,0.54,0.13,0.67,0.13s0.22,0.05,0.27,0.05c0.76,0.18,1.16,0.63,1.16,1.39v2.64
				h-3.41h-6.05h-3.36v-2.64c0-0.76,0.36-1.21,1.12-1.39c0.04,0,0.13-0.05,0.27-0.05c0.14,0,0.36-0.09,0.67-0.13
				c0.31-0.04,0.76-0.13,1.3-0.22V776.1h-6.59c-0.09,0.99-0.18,1.61-0.22,1.88c-0.13,0.54-0.45,0.85-1.03,0.85h-1.88h-0.54h-0.18
				v-7.66h0.67h0.04h25.49H433.19z"/>
			<path class="st0" d="M461.32,771.17v3.14v1.66v3.72h-0.22h-0.54h-1.84c-0.58,0-0.9-0.31-1.03-0.85c-0.04-0.36-0.18-1.3-0.31-2.87
				h-10.44v8.96h10.98v4.66h-10.98v9.14h10.44c0.13-1.57,0.27-2.51,0.31-2.87c0.13-0.54,0.45-0.85,1.03-0.85h1.84h0.54h0.22v3.72
				v1.7v3.14h-20.43h-3.41v-2.64c0-0.76,0.36-1.21,1.12-1.39c0.04,0,0.13-0.05,0.27-0.05c0.13,0,0.36-0.09,0.67-0.13
				c0.31-0.04,0.81-0.13,1.34-0.22v-23.52c-0.54-0.09-1.03-0.18-1.34-0.22c-0.31-0.04-0.54-0.13-0.67-0.13
				c-0.14,0-0.22-0.04-0.27-0.04c-0.76-0.18-1.12-0.63-1.12-1.39v-2.64h3.41H461.32z"/>
			<path class="st0" d="M486.99,793.44c0,1.48-0.27,2.78-0.76,4.08c-0.49,1.3-1.21,2.42-2.19,3.36c-0.94,0.94-2.15,1.7-3.54,2.24
				c-1.39,0.54-2.96,0.81-4.75,0.81h-0.67c-2.87,0-5.96-0.58-9.27-1.7v-0.81v-7.53h0.18h0.54h1.84c0.58,0,0.9,0.27,1.03,0.81
				c0.09,0.4,0.22,1.66,0.4,3.72c1.3,0.4,3.36,0.58,6.14,0.58c1.7,0,3.05-0.4,3.99-1.21c0.94-0.81,1.39-1.97,1.39-3.49
				c0-0.85-0.22-1.57-0.63-2.11c-0.4-0.54-0.99-0.99-1.7-1.34c-0.72-0.36-1.48-0.67-2.37-0.94c-0.9-0.27-1.84-0.49-2.73-0.81
				c-0.94-0.31-1.84-0.67-2.73-1.08c-0.9-0.4-1.7-0.99-2.42-1.66c-0.72-0.67-1.26-1.48-1.66-2.51c-0.4-0.99-0.67-2.24-0.67-3.72
				c0-1.16,0.22-2.33,0.72-3.45c0.45-1.12,1.17-2.15,2.06-3c0.9-0.85,2.02-1.52,3.32-2.06c1.3-0.54,2.82-0.81,4.52-0.81
				c3.18,0,6.27,0.63,9.28,1.84v8.29h-0.18h-0.54h-1.84c-0.58,0-0.9-0.31-1.03-0.85c-0.09-0.4-0.22-1.61-0.4-3.63
				c-1.12-0.49-2.91-0.72-5.24-0.72c-0.85,0-1.52,0.09-2.15,0.27c-0.63,0.22-1.17,0.49-1.57,0.85c-0.4,0.36-0.76,0.81-0.99,1.3
				c-0.22,0.49-0.31,1.07-0.31,1.66c0,0.76,0.27,1.39,0.67,1.88c0.4,0.49,0.94,0.94,1.66,1.3c0.72,0.36,1.52,0.72,2.42,0.99
				c0.9,0.27,1.79,0.58,2.73,0.9c0.94,0.31,1.84,0.72,2.73,1.12c0.9,0.4,1.7,0.94,2.42,1.61c0.72,0.67,1.3,1.43,1.7,2.37
				C486.81,790.93,486.99,792.1,486.99,793.44z"/>
			<path class="st0" d="M517.94,771.17v7.66h-0.18h-0.54h-1.84c-0.58,0-0.94-0.31-1.08-0.85c-0.04-0.27-0.13-0.85-0.22-1.84h-6.59
				v22.99c0.54,0.09,0.99,0.18,1.3,0.22c0.31,0.04,0.54,0.13,0.67,0.13s0.22,0.05,0.27,0.05c0.76,0.18,1.16,0.63,1.16,1.39v2.64
				h-3.41h-6.05h-3.36v-2.64c0-0.76,0.36-1.21,1.12-1.39c0.04,0,0.13-0.05,0.27-0.05s0.36-0.09,0.67-0.13
				c0.31-0.04,0.76-0.13,1.3-0.22V776.1h-6.59c-0.09,0.99-0.18,1.61-0.22,1.88c-0.13,0.54-0.45,0.85-1.03,0.85h-1.88h-0.54h-0.18
				v-7.66h0.67h0.04h25.49H517.94z"/>
		</g>
	</g>
</g>
</svg>
